<?xml version="1.0" encoding="UTF-8" standalone="no"?>
<svg
   xmlns:dc="http://purl.org/dc/elements/1.1/"
   xmlns:cc="http://creativecommons.org/ns#"
   xmlns:rdf="http://www.w3.org/1999/02/22-rdf-syntax-ns#"
   xmlns:svg="http://www.w3.org/2000/svg"
   xmlns="http://www.w3.org/2000/svg"
   xmlns:sodipodi="http://sodipodi.sourceforge.net/DTD/sodipodi-0.dtd"
   xmlns:inkscape="http://www.inkscape.org/namespaces/inkscape"
   width="200mm"
   height="200mm"
   viewBox="0 0 200 200"
   version="1.1"
   id="svg24"
   inkscape:version="1.0.1 (3bc2e813f5, 2020-09-07)"
   sodipodi:docname="beakedwhale.svg">
  <defs
     id="defs18" />
  <sodipodi:namedview
     id="base"
     pagecolor="#ffffff"
     bordercolor="#666666"
     borderopacity="1.0"
     inkscape:pageopacity="0.0"
     inkscape:pageshadow="2"
     inkscape:zoom="0.7"
     inkscape:cx="698.505"
     inkscape:cy="411.93477"
     inkscape:document-units="mm"
     inkscape:current-layer="layer1"
     inkscape:document-rotation="0"
     showgrid="false"
     showguides="true"
     inkscape:guide-bbox="true"
     inkscape:window-width="1346"
     inkscape:window-height="1001"
     inkscape:window-x="171"
     inkscape:window-y="0"
     inkscape:window-maximized="0">
    <sodipodi:guide
       position="108.47917,100.21428"
       orientation="0,-1"
       id="guide32" />
  </sodipodi:namedview>
  <metadata
     id="metadata21">
    <rdf:RDF>
      <cc:Work
         rdf:about="">
        <dc:format>image/svg+xml</dc:format>
        <dc:type
           rdf:resource="http://purl.org/dc/dcmitype/StillImage" />
        <dc:title></dc:title>
      </cc:Work>
    </rdf:RDF>
  </metadata>
  <g
     inkscape:label="Layer 1"
     inkscape:groupmode="layer"
     id="layer1">
    <path
       style="fill:#000000;stroke-width:0.481627"
       d="m 166.78699,123.9111 c -1.22458,-1.14039 -2.4679,-2.7659 -2.76292,-3.61222 l -0.53644,-1.53881 -4.40793,-0.004 c -5.50878,-0.004 -11.85335,-0.94574 -19.59833,-2.91044 -9.91746,-2.5158 -9.89556,-2.51389 -25.50717,-2.23215 -14.178217,0.25585 -23.736317,0.98922 -38.530252,2.95631 -3.046298,0.40507 -6.97513,0.7382 -8.73074,0.74035 -2.364722,0.004 -3.361562,0.20818 -3.8462,0.79214 -0.359804,0.43353 -1.632554,1.21076 -2.828336,1.72717 -1.968761,0.85023 -2.497092,0.88427 -5.592747,0.36021 -2.565709,-0.43428 -4.043574,-0.44464 -5.923647,-0.0414 -5.800646,1.24404 -19.183303,0.33918 -23.786437,-1.60827 -1.357138,-0.57373 -3.818181,-0.80848 -9.632561,-0.91843 -8.1509786,-0.154 -10.5669903,-0.63611 -11.4490166,-2.28421 -0.7031284,-1.31381 0.065896,-2.45454 2.8661729,-4.25149 1.3132161,-0.84269 3.1997404,-2.5232 4.1922787,-3.73446 3.40588,-4.15646 10.138683,-8.355259 17.98606,-11.216739 2.001708,-0.729896 6.348625,-2.418213 9.659817,-3.751802 16.383646,-6.598573 33.737931,-11.083785 48.92838,-12.645534 2.890125,-0.297131 9.697791,-0.474504 15.128148,-0.394155 11.02042,0.163101 11.20073,0.122508 16.58516,-3.723841 3.17108,-2.265287 4.78638,-2.143999 4.99554,0.375114 0.0816,0.982139 -0.0876,2.226405 -0.37582,2.765003 -1.59596,2.982059 3.87674,6.841951 17.08454,12.049705 11.32749,4.466352 20.19546,9.595799 27.71578,16.031519 l 3.63437,3.11023 5.03493,0.82938 c 2.76921,0.45616 6.91675,1.45376 9.21675,2.21688 4.72632,1.56815 10.59001,4.32306 10.84786,5.0966 0.11286,0.33851 -2.09875,0.62259 -6.46584,0.83058 -9.66637,0.46038 -14.44642,1.79254 -19.04342,5.30723 -1.26054,0.96378 -2.3683,1.75231 -2.46168,1.75231 -0.0934,0 -1.17171,-0.93305 -2.3963,-2.07344 z m 4.34206,-1.08701 c 4.18721,-3.19375 10.97068,-5.02727 18.59943,-5.02727 2.65777,0 4.20816,-0.17329 3.93107,-0.43939 -0.76008,-0.72992 -6.48801,-2.91113 -10.33092,-3.93405 -4.89608,-1.30324 -12.44128,-2.34986 -17.01754,-2.36056 -2.79988,-0.007 -3.7216,-0.16402 -3.57445,-0.61087 0.12142,-0.36865 1.46345,-0.69539 3.46182,-0.84285 l 3.26356,-0.24082 -3.06048,-2.46544 c -7.42882,-5.98447 -15.79563,-10.763392 -25.21538,-14.402479 -10.92334,-4.219971 -17.77738,-8.297065 -19.02932,-11.319517 -0.55661,-1.343746 -0.5287,-1.742744 0.21896,-3.13107 0.87769,-1.629775 0.71144,-2.636324 -0.43546,-2.636324 -0.35545,0 -1.91398,0.945732 -3.46337,2.101603 -1.5494,1.155889 -3.57565,2.336662 -4.50277,2.623964 -0.99676,0.308873 -6.02503,0.521669 -12.30304,0.520686 -11.464109,-0.0018 -19.00794,0.703775 -28.928076,2.705697 -10.660031,2.151243 -26.13313,6.982917 -36.551818,11.413755 -1.854268,0.788583 -4.996891,1.9831 -6.983606,2.654454 -7.176529,2.425166 -13.232294,6.088481 -17.148881,10.373881 -1.312701,1.4363 -3.3055724,3.21954 -4.4286008,3.96273 -1.1230303,0.74319 -1.96466,1.42847 -1.8702906,1.52284 0.094366,0.0943 1.4324548,-0.26224 2.973523,-0.79245 3.7441034,-1.28816 10.5781224,-2.89151 12.3246014,-2.89151 2.377223,0 1.560708,0.86453 -1.362505,1.44265 -3.580714,0.70813 -8.812375,2.12084 -12.1611071,3.28385 l -2.6489534,0.91998 2.6489534,0.51765 c 7.1068361,1.38877 13.7810251,1.073 18.9787441,-0.89794 1.299418,-0.49271 2.545632,-0.78272 2.769363,-0.64445 0.863978,0.53398 0.322767,1.11024 -1.806374,1.92337 -2.152232,0.82195 -2.182063,0.86105 -1.083664,1.42072 2.221565,1.13194 7.974568,1.89755 14.133449,1.88089 8.379846,-0.0228 9.147556,-0.50614 4.107728,-2.58695 -2.126802,-0.87809 -3.866914,-1.7743 -3.866914,-1.99157 0,-0.97678 1.095742,-0.7676 5.161732,0.98534 4.577749,1.97359 9.30946,3.37908 11.376016,3.37908 1.738681,0 4.653885,-1.83385 4.653885,-2.92758 0,-1.57956 -5.248837,-3.60965 -13.605993,-5.26239 -1.871575,-0.37013 -2.76936,-0.7779 -2.76936,-1.25782 0,-0.84003 1.231354,-0.6735 8.167447,1.10453 5.063283,1.29795 9.003405,3.2029 9.434563,4.56138 0.369461,1.16407 1.955848,1.15488 10.83493,-0.0628 19.133388,-2.62381 45.419268,-4.05007 55.125518,-2.99107 2.38406,0.26013 7.36892,1.25274 11.07745,2.20581 3.70853,0.95308 9.74457,2.10065 13.4134,2.55015 6.665,0.8166 9.11434,0.72203 16.6293,-0.64212 1.2571,-0.22822 1.57626,-0.14418 1.40487,0.37001 -0.12196,0.36593 -1.61253,0.97554 -3.31235,1.35468 -1.69982,0.37914 -3.16231,0.74004 -3.25,0.802 -0.58709,0.4148 3.02377,5.01145 3.9367,5.01145 0.25655,0 1.19444,-0.55526 2.08421,-1.23394 z M 28.336092,108.76624 c 0.211039,-1.09584 2.013727,-1.09584 2.224764,0 0.12158,0.6313 -0.15764,0.84286 -1.112381,0.84286 -0.95475,0 -1.233959,-0.21156 -1.112383,-0.84286 z"
       id="path3098"
       sodipodi:nodetypes="csccssscssccscssssssssscsscsssssscccssscsscsssssssssssssssssscssssscssssssssscssssssssccssss" />
  </g>
</svg>
