<svg xmlns="http://www.w3.org/2000/svg" xmlns:xlink="http://www.w3.org/1999/xlink" version="1.1" x="0px" y="0px" viewBox="0 0 100 100" enable-background="new 0 0 100 100" xml:space="preserve"><path d="M87.5,70.1c0.6-30.8-19.4-43.8-19.4-43.8c-1.9-2.5-1.3-9.6,1-12.9C71.4,10,70,9.9,70,9.9c-7.9-0.8-12,6.4-13.8,9.5  c-1.8,3.1-3.3,2.8-3.3,2.8c-24.2-1.3-35.3,6.9-39.2,9.9c-3.9,3-8.4,10.1-8.4,10.1C4,44,7.7,46,7.7,46c6.8,2.4,16.9,3.1,27,3.8  c1.9,2,6,6.3,6.9,6.8c1.2,0.6,7.2,3.9,10.6,2.9c1.5-0.5,2.3-4.1-1.4-8.5c6.9,0.7,12.7,1.8,16.1,3.8c9.5,5.8,14.6,15,14.6,15  c-6.2,5.1-6.6,9.5-6.6,9.5c3.4-0.6,6.8,1.7,8,1.7c1.2-0.1,1.6-1.8,1.6-1.8s0,2.5,3.1,3.8c3.1,1.3,7.4,7.2,7.4,7.2  C96.1,77.4,87.5,70.1,87.5,70.1z M27.2,35.6c3.1-2.5,8.8-2.7,10.4-2.7c1.6-0.1,3.3,1,1.3,1.6c-2.1,0.6-4,2.2-4,2.2  c-4.4,2.9-8.2,2.1-8.6,1.5C25.9,37.4,27.2,35.6,27.2,35.6z M9.5,45.6c-1.9-0.5-3.4-2.1-3.4-2.1c6.6,2.1,17-2.4,22.9-2.2  c4.2,0.1,7.8,1.4,9.5,2.2c0.5,0.2,0.5,0.9,0.1,1.2c-2.3,1.5-6,4.2-6,4.2C21.4,48.1,11.5,46.1,9.5,45.6z M61.9,26.1  c1.1-0.1,6.3,1.4,6.3,1.4c2.6,1.9,5.5,4.9,5.5,4.9c-2.6-1.8-2.3,1-2.9,2.2c-0.6,1.2-1.8-0.6-4.9-2.8C62.7,29.6,60.7,26.2,61.9,26.1z   M79,57.8c-1.8-1.4-4.1-3-4.7-3c-1.1,0-1.7,2.4-1.7,2.4s-5-4.7-9.9-5.6c0,0,4.9-0.5,6.4-2.4c1.5-1.9,5.5-3.8,10.4,1.2  c0,0,2.3,2.7,2.9,5.4C82.7,57.6,80.5,59,79,57.8z M89.9,83c-1.9-1.2-3.9-2.1-4.8-4.4L84.4,77l-0.8,1.7c0,0-0.4,1.7-2,1  c-1.6-0.8-3.3-1.6-5.3-1.5c0,0,2.3-5.4,6.3-7.7c0,0,1-1,1.6-1c0,0,1.3,0.4,1.7,1c0,0,3.2,1.9,5.7,7.7c0,0,1.9,3.2,2.1,8.8  C93.9,86.9,91.8,84.2,89.9,83z"/></svg>