<svg xmlns="http://www.w3.org/2000/svg" xmlns:xlink="http://www.w3.org/1999/xlink" version="1.1" x="0px" y="0px" viewBox="0 0 100 100" enable-background="new 0 0 100 100" xml:space="preserve"><g><g><path fill="#000000" d="M84.89941,36.36426c-5.25293-4.48389-19.58496-8.48438-27.63379-8.61426    c-4.80078-0.07227-9.60254,0.94873-14.25,1.94189c-1.32031,0.28174-2.6333,0.56201-3.93555,0.81494l-1.16357,0.23193    c-2.00732,0.40527-4.08643,0.82227-6.06348,0.80029c-4.95361-0.05713-9.39258-0.16455-13.5542-0.89893    c-1.48291-0.26172-2.82227,0.00439-3.87207,0.77002c-1.1958,0.87207-1.96338,2.32178-2.21973,4.19287    c-0.13464,0.98523-0.14917,2.29596-0.01917,3.60431c-0.73334,0.15631-1.63171,0.34033-1.97888,0.38397    c-0.54785,0.06836-0.93652,0.56836-0.86768,1.1167c0.06348,0.50586,0.49414,0.87549,0.99072,0.87549    c0.0415,0,0.0835-0.00244,0.12598-0.00781c0.41827-0.05249,1.33923-0.2406,2.05774-0.39331    c0.11304,0.47058,0.2442,0.92255,0.40857,1.32251c0.15002,0.36481,0.34351,0.78467,0.57532,1.21582    c-0.73297,0.6756-1.66058,1.54913-1.88293,1.84521c-0.32666,0.43555-0.23633,1.0415,0.19287,1.37695    c0.17969,0.14062,0.39404,0.20801,0.60791,0.20801c0.29688,0,0.59229-0.13037,0.79248-0.37598    c0.12488-0.1532,0.75293-0.75427,1.4245-1.3783c0.76135,0.87067,1.72626,1.52246,2.89679,1.47791    c3.12207-0.09766,4.47363-1.91992,4.5293-1.99756c0.31982-0.44238,0.22021-1.05225-0.2168-1.37939    c-0.43701-0.32666-1.06104-0.23584-1.39502,0.1958c-0.03516,0.04541-0.88818,1.1167-2.97998,1.18213    c-1.01855,0.05273-2.06348-1.59668-2.69482-3.13135c-0.64307-1.56543-0.80469-4.26611-0.58545-5.87012    c0.17822-1.30029,0.68115-2.31152,1.4165-2.84766c0.60889-0.44336,1.39746-0.58496,2.34619-0.4165    c4.31055,0.76074,8.83545,0.87061,13.87842,0.9292c2.18359,0.00781,4.37305-0.41504,6.48193-0.83984l1.14941-0.229    c1.31494-0.25488,2.64014-0.53809,3.97217-0.82275c4.53906-0.96875,9.23389-1.97412,13.80029-1.89746    c7.56445,0.12207,21.49561,3.97705,26.36719,8.13574c2.3916,2.0415,10.05713,9.50439,8.28857,19.82031    c-1.16504,6.79785-3.69238,8.58203-6.61865,10.64746c-0.65674,0.46338-1.33545,0.94287-2.02002,1.49072    c-2.34473,1.87549-4.79932,4.24463-6.35791,5.80713c0.04053-2.33252,0.52295-6.05127,2.87256-8.84082    c1.94678-2.31201,3.82715-3.07861,5.33789-3.69482c1.48291-0.60449,2.8833-1.17529,3.05908-3.021    c0.18066-1.89844-0.77246-5.01611-2.94385-7.30078c-0.0788-0.08295-0.1756-0.16803-0.26117-0.25208    c0.10718-0.30756,0.67426-2.01672,0.539-3.5072c-0.0498-0.5498-0.53418-0.94824-1.08643-0.90576    c-0.55029,0.05029-0.95557,0.53662-0.90576,1.08643c0.05658,0.61963-0.08832,1.4021-0.23761,1.99054    c-1.10529-0.70294-2.50934-1.2901-4.25958-1.55634C79.3667,48.68762,79.75,47.53772,79.75,47    c0-0.53711-0.42578-0.94922-0.96289-0.96973c-0.52539-0.00391-0.99512,0.41602-1.03662,0.95166    c-0.02393,0.30768-0.43243,1.50067-0.83258,2.52509c-0.1983,0.00092-0.38141-0.01526-0.58685-0.00604    c-3.48535,0.15381-8.375,1.64795-13.55176,3.22998c-7.44324,2.27429-15.8299,4.83002-21.88977,4.03406    c1.00903-1.70819,1.36597-3.60663,0.96008-5.36511c-0.125-0.53857-0.66309-0.87354-1.19971-0.74951    c-0.53809,0.12451-0.87354,0.66162-0.74951,1.19971c0.34912,1.51025-0.13525,3.27832-1.29492,4.72998    c-0.4541,0.56836-1.06006,0.97021-1.70215,1.396c-0.65332,0.43359-1.32861,0.88184-1.9248,1.54346    c-1.27002,1.41064-1.83203,3.24219-2.18018,4.68066l-0.03711,0.15234c-0.20801,0.84082-0.36621,1.53174-0.48047,2.10156    c-1.14014-1.32764-1.75049-2.83154-1.81982-4.48975c-0.12109-2.91406,1.47363-5.41357,2.21973-6.10645    c1.76807-1.64209,5.05908-5.4165,5.19824-5.57617c0.36279-0.4165,0.31934-1.04785-0.09717-1.41064    c-0.41748-0.36328-1.04834-0.31934-1.41064,0.09717c-0.02478,0.02802-1.82825,2.0957-3.45428,3.81384    c-0.44781-0.33105-2.15326-1.57379-4.21021-2.87701c1.70312-1.32123,1.7099-1.58051,1.7099-1.98859c0-0.55225-0.44775-1-1-1    c-0.37891,0-0.70898,0.21094-0.87842,0.52197c-0.22778,0.23053-0.94452,0.80206-1.67041,1.35065    c-1.91876-1.11072-3.89642-2.06982-5.30469-2.27838c-0.54443-0.07617-1.05469,0.29688-1.13574,0.84277    c-0.08105,0.54639,0.29639,1.05469,0.84277,1.13574c1.22156,0.18103,3.19922,1.19476,5.15729,2.36896    c0.02588,0.01471,0.04797,0.03241,0.07489,0.04468c1.95587,1.17731,3.8728,2.50061,4.99548,3.31927    c-0.05969,0.05701-0.12207,0.11768-0.17834,0.16992c-1.18164,1.09766-3.00293,4.14697-2.85645,7.65527    c0.11768,2.83398,1.51562,5.37939,4.04199,7.36182c0.00049,0.00098,0.00146,0.00146,0.00244,0.00244h0.00049    c0.18311,0.14404,0.40039,0.21338,0.6167,0.21338c0.29639,0,0.58984-0.13135,0.78711-0.38281    c0.23584-0.30029,0.27246-0.69336,0.12891-1.02002c0.00293-0.26074,0.08594-1.05908,0.66211-3.38965l0.04004-0.1626    c0.29199-1.20898,0.75195-2.73486,1.72217-3.81201c0.42627-0.47363,0.96924-0.8335,1.54395-1.21484    c0.5-0.33154,1.00885-0.67889,1.48798-1.11371c0.06366,0.02679,0.12067,0.06458,0.19122,0.07806    c6.59668,1.25586,15.66895-1.51709,23.67578-3.96387c5.05176-1.54395,9.82373-3.00195,13.05518-3.14453    c3.06152-0.13574,5.53516,0.76416,7.34961,2.67236c1.84863,1.94531,2.51758,4.52393,2.40234,5.73389    c-0.05518,0.58105-0.39453,0.77637-1.82275,1.35889c-1.62402,0.66211-3.84814,1.56885-6.11328,4.2583    c-4.23877,5.03369-3.26855,12.31006-3.2251,12.61719c0.05371,0.38086,0.3208,0.69678,0.68701,0.81348    C75.79639,78.98486,75.89844,79,76,79c0.271,0,0.53564-0.11035,0.72754-0.31396c0.04102-0.04346,4.12207-4.35986,7.77197-7.28027    c0.63818-0.51025,1.29199-0.97168,1.92432-1.41797c3.15283-2.22607,6.13135-4.32861,7.43701-11.94385    C95.80713,46.68799,87.49365,38.5791,84.89941,36.36426z"/><circle fill="#000000" cx="25.16565" cy="37.62805" r="1.5"/></g></g></svg>