<svg xmlns="http://www.w3.org/2000/svg" xmlns:xlink="http://www.w3.org/1999/xlink" version="1.1" x="0px" y="0px" viewBox="0 0 100 100" style="enable-background:new 0 0 100 100;" xml:space="preserve"><g><circle cx="14.79333" cy="49.03888" r="2.99243"/><path d="M96.3877,59.35254c-0.51367-0.6582-1.02637-1.26855-1.52051-1.85742c-1.94141-2.30957-3.22363-3.83594-3.22363-6.5127   c0-0.00195-0.00055-0.00372-0.00055-0.00562c0-0.00195,0.00055-0.00366,0.00055-0.00562c0-2.70947,1.26465-4.20459,3.17969-6.46729   c0.50781-0.6001,1.03613-1.2251,1.56445-1.90332c0.85938-1.10352,0.7998-2.65283-0.14062-3.68408   c-0.95508-1.0459-2.45508-1.24268-3.64941-0.47559c-5.51172,3.53271-10.37598,5.40039-14.06934,5.40039   c-3.21484,0-7.03613-1.63916-11.46094-3.5376c-1.52185-0.65295-3.13074-1.34003-4.82916-2.01636   c-1.77905-0.77997-8.32556-4.28406-9.53705-14.01782c-0.07227-0.57666-0.39062-1.09375-0.87402-1.4165   s-1.08301-0.41797-1.64355-0.26416c-7.95917,2.19958-12.57843,8.58282-14.13623,11.10468   c-5.67804,0.33679-11.27692,1.47021-16.38617,3.29718c-0.02069,0.00818-0.04181,0.01483-0.06207,0.02374   c-1.85138,0.66461-3.64545,1.4101-5.3457,2.2536C7.20703,42.76367,3,47.13867,3,50.97119   c0,0.00195,0.00055,0.00366,0.00055,0.00562C3.00055,50.9787,3,50.98047,3,50.98242c0,3.83301,4.20703,8.20801,11.25342,11.70312   c1.69525,0.841,3.48407,1.58429,5.32965,2.2475c0.02972,0.01318,0.06055,0.02301,0.09094,0.03473   c5.07465,1.81305,10.63202,2.93958,16.26971,3.28363c1.12964,2.05884,4.07703,6.52087,9.51038,9.04547   c0.27148,0.12598,0.55859,0.18652,0.8418,0.18652c0.65771,0,1.29639-0.3252,1.67578-0.90723   c2.63062-4.0321,3.60297-7.1192,2.95233-9.3927c1.97687-0.4176,3.85107-0.91956,5.62671-1.47717   c1.3465,2.01392,4.12476,5.63928,7.66901,7.36206c0.27539,0.13379,0.57422,0.20117,0.87402,0.20117   c0.28418,0,0.56836-0.06055,0.83301-0.18164c0.54297-0.24902,0.94727-0.72754,1.10059-1.30566   c2.93011-11.05121,8.50751-13.17047,9.83057-13.52417c0.57166-0.08527,1.13269-0.14575,1.67041-0.14575   c3.69434,0,8.55859,1.86719,14.07031,5.40137c1.19531,0.7666,2.69727,0.56738,3.64941-0.47852   C97.18848,62.00391,97.24609,60.45508,96.3877,59.35254z M75.98633,47.60712c0.38721,0.42432,1.09277,1.45905,1.09277,3.37921   c0,1.96021-0.71802,2.96667-1.09113,3.3598c-3.26013,0.53748-6.67096,1.98578-10.49677,3.6275   c-2.61023,1.11963-5.47583,2.34448-8.65106,3.42206c-0.02832,0.00842-0.05603,0.01837-0.08411,0.02808   c-4.8894,1.65234-10.51794,2.9483-17.12909,2.9483c-5.24744,0-10.1001-0.72949-14.3736-1.86658   c2.38269-2.55603,4.2403-6.75659,4.2403-11.5343c0-4.66748-1.8877-8.91724-4.29132-11.51001   c4.28571-1.14484,9.15656-1.87964,14.42462-1.87964c8.51459,0,15.40289,2.146,21.17267,4.44031   c0.22998,0.09717,0.39551,0.16162,0.50305,0.20038c1.46545,0.59113,2.86108,1.18793,4.18854,1.75726   C69.31641,45.62097,72.72668,47.06934,75.98633,47.60712z M49.14258,27.18066c0.71631,3.28772,1.97095,5.88647,3.40509,7.95667   c-3.48676-0.84296-7.31494-1.42352-11.55115-1.52893C42.66174,31.50745,45.37555,28.78064,49.14258,27.18066z M7,50.98242   c0-0.00195-0.00055-0.00372-0.00055-0.00562C6.99945,50.97485,7,50.97314,7,50.97119c0-2.45941,5.23035-6.96552,13.6474-10.06635   c1.3551,0.47675,4.84625,4.11462,4.84625,10.06635c0,6.00641-3.48175,9.61615-4.84039,10.0799   C12.23279,57.95026,7,53.44269,7,50.98242z M47.04004,68.18164c0.02539,0.05078,0.53369,1.14355-1.46143,4.64746   c-2.17548-1.33984-3.75317-3.0531-4.81299-4.47937c2.00488-0.0415,3.92059-0.18683,5.75018-0.42017   C46.6463,67.94824,46.95142,68.00824,47.04004,68.18164z M63.94629,68.14355c-1.41412-1.16064-2.61902-2.62634-3.46796-3.79639   c2.32831-0.87518,4.48621-1.79559,6.49823-2.65887C65.87531,63.41528,64.83148,65.53247,63.94629,68.14355z M80.56866,54.25232   c0.30359-0.89667,0.51044-1.97339,0.51044-3.26599c0-1.29785-0.21094-2.38098-0.5188-3.28406   c2.70831-0.33215,5.70331-1.29889,8.96802-2.91223c-1.10352,1.67188-1.88477,3.57471-1.88477,6.18115   c0,0.00195,0.00055,0.00366,0.00055,0.00562c0,0.00189-0.00055,0.00366-0.00055,0.00562c0,2.58984,0.79297,4.50098,1.91211,6.19434   C86.28375,55.55713,83.28259,54.58624,80.56866,54.25232z"/></g></svg>