<?xml version="1.0" encoding="UTF-8" standalone="no"?>
<svg
   xmlns:dc="http://purl.org/dc/elements/1.1/"
   xmlns:cc="http://creativecommons.org/ns#"
   xmlns:rdf="http://www.w3.org/1999/02/22-rdf-syntax-ns#"
   xmlns:svg="http://www.w3.org/2000/svg"
   xmlns="http://www.w3.org/2000/svg"
   xmlns:sodipodi="http://sodipodi.sourceforge.net/DTD/sodipodi-0.dtd"
   xmlns:inkscape="http://www.inkscape.org/namespaces/inkscape"
   width="200mm"
   height="200mm"
   viewBox="0 0 200 200"
   version="1.1"
   id="svg8"
   inkscape:version="1.0.1 (3bc2e813f5, 2020-09-07)"
   sodipodi:docname="Kogi.svg">
  <defs
     id="defs2" />
  <sodipodi:namedview
     id="base"
     pagecolor="#ffffff"
     bordercolor="#666666"
     borderopacity="1.0"
     inkscape:pageopacity="0.0"
     inkscape:pageshadow="2"
     inkscape:zoom="0.7"
     inkscape:cx="493.0121"
     inkscape:cy="254.62229"
     inkscape:document-units="mm"
     inkscape:current-layer="layer1"
     inkscape:document-rotation="0"
     showgrid="false"
     showguides="true"
     inkscape:guide-bbox="true"
     inkscape:window-width="1346"
     inkscape:window-height="1040"
     inkscape:window-x="182"
     inkscape:window-y="0"
     inkscape:window-maximized="0">
    <sodipodi:guide
       position="46.491071,100.21428"
       orientation="0,-1"
       id="guide16" />
  </sodipodi:namedview>
  <metadata
     id="metadata5">
    <rdf:RDF>
      <cc:Work
         rdf:about="">
        <dc:format>image/svg+xml</dc:format>
        <dc:type
           rdf:resource="http://purl.org/dc/dcmitype/StillImage" />
        <dc:title></dc:title>
      </cc:Work>
    </rdf:RDF>
  </metadata>
  <g
     inkscape:label="Layer 1"
     inkscape:groupmode="layer"
     id="layer1">
    <path
       style="fill:#000000;stroke-width:0.4783"
       d="m 66.368487,133.45761 c -1.446868,-0.22724 -4.493721,-0.88292 -6.770781,-1.45706 l -4.140125,-1.04388 -9.013132,0.9151 c -4.957228,0.50331 -11.380722,0.91301 -14.274441,0.91046 -5.279442,-0.005 -5.381688,-0.0291 -8.848554,-2.11279 -0.394613,-0.23716 -2.138332,-0.86815 -3.874947,-1.40219 -5.754428,-1.7696 -11.7165661,-6.0243 -13.6317681,-9.72789 -1.9827757,-3.83429 -0.247246,-8.3676 4.7423771,-12.38733 2.847622,-2.29409 10.691952,-6.57281 16.112435,-8.788561 1.709914,-0.698967 3.998253,-1.676761 5.085163,-2.172868 3.855007,-1.759569 7.656216,-2.802203 12.864107,-3.528512 5.611544,-0.782595 14.725403,-2.696097 29.88076,-6.273617 5.129779,-1.210912 10.510653,-2.424566 11.957522,-2.697007 4.269072,-0.803855 11.437288,-3.253515 15.544747,-5.312254 4.42922,-2.220007 6.91252,-3.835802 11.24006,-7.313473 4.76859,-3.832121 6.69984,-5.001753 8.2587,-5.001753 1.42066,0 1.42771,0.01265 1.20617,2.319252 -0.1269,1.320742 -0.9768,3.84513 -1.97406,5.863419 -0.96315,1.949291 -1.75121,4.010024 -1.75121,4.579405 0,3.026583 5.63964,6.298349 18.38512,10.665906 16.79255,5.754379 27.44088,11.778463 37.84949,21.412663 l 3.22965,2.98938 h 5.38087 c 8.24544,0 18.62696,2.41823 18.27526,4.25696 -0.11117,0.5809 -0.97546,0.83938 -3.58887,1.07323 -4.35116,0.38934 -8.39269,1.64906 -9.96467,3.10592 -0.71415,0.66186 -1.80927,1.1299 -2.64375,1.1299 h -1.42457 l 0.92578,1.31532 c 1.12881,1.60376 1.6672,5.82288 0.78617,6.16096 -0.81762,0.31375 -6.21511,-1.54914 -8.68898,-2.99891 -1.92603,-1.12873 -5.43044,-4.5595 -5.42988,-5.31578 1.4e-4,-0.19654 -3.06696,-0.35734 -6.8158,-0.35734 -3.74882,0 -11.26508,-0.30901 -16.70281,-0.68669 -8.1492,-0.566 -11.63767,-0.58602 -19.84946,-0.11389 -8.85754,0.50925 -10.60654,0.7534 -15.76683,2.20094 -9.62571,2.70017 -21.079156,4.69452 -33.296921,5.79788 -2.671546,0.24126 -3.228514,0.4389 -3.228514,1.14559 0,0.46972 -0.446098,1.42114 -0.991316,2.11428 -0.875366,1.11284 -1.308955,1.25372 -3.706844,1.20434 -1.493526,-0.0307 -3.899297,-0.24185 -5.346148,-0.4691 z m 7.734709,-1.22317 c 2.699874,-2.44334 -1.14774,-5.33211 -12.278577,-9.21868 -3.156783,-1.10226 -5.919783,-2.18225 -6.140003,-2.39999 -1.141811,-1.12894 1.128777,-0.7768 6.145733,0.95312 6.145101,2.11892 10.889883,4.32916 12.535134,5.83919 0.970634,0.89086 1.442132,0.94609 5.500457,0.64424 10.506676,-0.78146 24.08522,-3.15473 33.11804,-5.7884 2.37146,-0.69144 6.75128,-1.47587 9.80516,-1.75613 6.98939,-0.64142 32.9979,-0.22919 37.48614,0.59415 3.7844,0.69423 10.42817,0.0417 15.37746,-1.51034 1.58245,-0.49623 2.93098,-0.90502 2.99674,-0.90842 0.0658,-0.003 0.1195,0.30888 0.1195,0.69394 0,0.44064 -1.08756,1.03396 -2.9346,1.60096 l -2.93457,0.90087 1.82579,2.02092 c 1.93726,2.14432 4.14578,3.45793 8.1023,4.81917 l 2.4309,0.83635 -0.19674,-1.73236 c -0.10829,-0.9528 -0.59985,-2.30368 -1.09255,-3.00195 -1.30512,-1.84964 -1.11652,-2.31766 0.93399,-2.31766 1.31134,0 2.13437,-0.32418 2.90464,-1.14407 1.24131,-1.32131 3.86079,-2.3732 7.9405,-3.18861 2.57388,-0.51444 2.7465,-0.61968 1.67405,-1.0206 -4.03126,-1.50701 -8.18149,-1.97446 -17.3384,-1.95287 -8.71055,0.0205 -11.11239,-0.26693 -8.37026,-1.00179 0.59192,-0.15863 1.81598,-0.29135 2.72016,-0.29494 l 1.64404,-0.006 -1.4048,-1.48609 c -2.08345,-2.20399 -7.61482,-6.6337 -11.68828,-9.36035 -7.66075,-5.127878 -14.36182,-8.270393 -26.41593,-12.387938 -10.70774,-3.657645 -16.24113,-6.576462 -18.06647,-9.529927 -1.27815,-2.06811 -1.20877,-3.112154 0.42207,-6.350376 1.54263,-3.063081 3.06958,-7.296785 2.74776,-7.618601 -0.42263,-0.422652 -3.07635,1.299067 -6.78611,4.402828 -8.3446,6.981483 -16.479099,10.794475 -29.146827,13.662397 -4.472101,1.012472 -12.220567,2.789453 -17.218813,3.948857 -8.431633,1.955819 -16.854154,3.6462 -26.374305,5.293255 -2.27216,0.3931 -6.75471,1.813166 -10.761767,3.409297 C 8.3707339,107.04517 1.7004453,114.34478 9.3647794,121.9754 c 2.5435576,2.53236 6.2972046,4.77249 10.0930086,6.02337 2.074085,0.68351 3.446691,0.79407 6.854823,0.55216 3.281987,-0.23297 4.216033,-0.16632 4.063929,0.29002 -0.108646,0.32588 -1.363802,0.81819 -2.789267,1.09401 l -2.59177,0.50152 1.625835,0.57758 c 0.894221,0.31768 3.154198,0.58013 5.022163,0.58324 3.234877,0.005 17.976983,-1.24329 20.262792,-1.71627 l 1.082571,-0.22402 -1.027416,-1.38965 c -0.674074,-0.91172 -0.906731,-1.68941 -0.676496,-2.26121 0.335012,-0.83201 0.375903,-0.82956 0.901452,0.0542 1.766966,2.97143 6.478956,4.93007 14.42123,5.9945 2.367574,0.31731 4.62755,0.64077 5.022145,0.71881 1.424633,0.28177 1.611862,0.24099 2.473417,-0.53871 z M 32.015355,118.84785 c 0.233905,-1.18851 1.673669,-1.95209 2.369218,-1.25653 0.436952,0.43694 0.426539,0.73593 -0.04537,1.30457 -0.835741,1.00702 -2.524594,0.9721 -2.323826,-0.048 z"
       id="path2638"
       sodipodi:nodetypes="sscscsssssssssssscsssscscssscssssssssssssssssssssssssssscssccsssssssscsssssssssscssssscscscsscsssscsscc" />
  </g>
</svg>
