<svg xmlns="http://www.w3.org/2000/svg" xmlns:xlink="http://www.w3.org/1999/xlink" version="1.1" x="0px" y="0px" viewBox="0 0 100 100" style="enable-background:new 0 0 100 100;" xml:space="preserve"><g><path d="M37.3168945,83.1787109c-0.449707,0.0009766-0.8510742-0.0693359-1.1708984-0.234375   c-0.4980469-0.2568359-0.7890625-0.71875-0.8193359-1.3017578c-0.0668945-1.2871094,1.1298828-2.9199219,1.9829102-3.4775391   c0.1533203-0.1015625,3.7172852-2.3974609,6.5087891-1.2626953c2.2719727-0.2958984,2.890625,0.5869141,2.9931641,0.7714844   c0.1347656,0.2412109,0.0483398,0.5449219-0.1928711,0.6796875s-0.5458984,0.0478516-0.6801758-0.1923828l0,0   c-0.0048828,0-0.4394531-0.4980469-2.1147461-0.25c-0.0942383,0.015625-0.1918945,0.0009766-0.2792969-0.0380859   c-1.9238281-0.8701172-4.7573242,0.5195313-5.6875,1.1289063c-0.7036133,0.4599609-1.5727539,1.7988281-1.5317383,2.5888672   c0.0151367,0.2910156,0.1494141,0.3984375,0.2788086,0.4648438c1.0371094,0.53125,4.2182617-0.6210938,6.1142578-1.6611328   c1.0288086-0.5644531,1.3896484-0.5810547,1.8544922-0.5488281c0.2080078,0.0166016,0.4233398,0.0322266,0.8930664-0.0820313   c0.4912109-0.1181641,0.703125-0.2353516,0.7851563-0.2929688c0.0102539-0.1728516,0.1098633-0.3349609,0.2753906-0.4179688   c0.2470703-0.1240234,0.546875-0.0234375,0.6708984,0.2236328c0.0327148,0.0664063,0.1298828,0.3046875-0.0073242,0.6005859   c-0.1782227,0.3828125-0.6513672,0.65625-1.4887695,0.859375c-0.6230469,0.1503906-0.9589844,0.125-1.2026367,0.1064453   c-0.2753906-0.0214844-0.4555664-0.0341797-1.2998047,0.4287109   C42.0737305,81.8886719,39.2480469,83.1787109,37.3168945,83.1787109z"/><path d="M56.0830078,78.3222656c-1.0507813,0-1.9052734-0.8544922-1.9052734-1.9052734s0.8544922-1.90625,1.9052734-1.90625   s1.90625,0.8554688,1.90625,1.90625S57.1337891,78.3222656,56.0830078,78.3222656z M56.0830078,75.5107422   c-0.4990234,0-0.9052734,0.40625-0.9052734,0.90625c0,0.4990234,0.40625,0.9052734,0.9052734,0.9052734   c0.5,0,0.90625-0.40625,0.90625-0.9052734C56.9892578,75.9169922,56.5830078,75.5107422,56.0830078,75.5107422z"/><path d="M79.5810547,88.0673828c-3.1894531,0-11.4306641-1.2177734-14.4892578-2.0214844   c-3.4150391-0.8964844-8.9794922-1.8554688-13.0097656-1.9521484c-3.8432617-0.0927734-9.3837891-1.2949219-10.9238281-1.9111328   c-0.2563477-0.1025391-0.3813477-0.3935547-0.2788086-0.6494141c0.1020508-0.2568359,0.3945313-0.3808594,0.6499023-0.2783203   c1.2880859,0.5146484,6.6196289,1.7441406,10.5761719,1.8388672c4.1074219,0.0986328,9.7695313,1.0732422,13.2402344,1.9853516   c3.8789063,1.0195313,13.7080078,2.2900391,15.0263672,1.9375c0.4130859-0.109375,0.5478516-0.2285156,0.5859375-0.2724609   l-23.5390625-3.8759766c-0.1816406-0.0292969-0.3310547-0.15625-0.3916016-0.3300781   c-0.0595703-0.1728516-0.0195313-0.3652344,0.1035156-0.5009766c0.1435547-0.15625,0.75-0.6699219,2.6728516-0.6201172   c7.3271484,1.1953125,18.4326172,1.5380859,18.5439453,1.5410156c0.0585938,0.0019531,0.1171875,0.0136719,0.171875,0.0361328   c1.5957031,0.6396484,6.09375,2.1611328,7.7177734,1.5390625c9.15625-3.3154297,6.7998047-14.3955078,6.7744141-14.5078125   l-1.2451172-4.6894531l0,0c-0.0009766,0-0.8457031-2.1435547-7.7041016-2.1484375   c-9.1015625,0.0966797-15.4267578-1.1318359-19.2060547-1.8613281c-1.7070313-0.3291016-2.9414063-0.5673828-3.7685547-0.5761719   c-2.9248047-0.0322266-3.671875-0.2402344-7.6748047-1.4912109c-4.0463867-1.2646484-14.34375-3.4316406-15.402832-3.5429688   c-1.2763672-0.1337891-3.8339844-2.2548828-4.3334961-2.6777344c-1.3466797-0.9345703-2.8793945-1.6933594-3.234375-1.6503906   c-0.6181641,0.5458984-3.2431641,0.6552734-4.3398438,0.6748047c-0.1064453,0.0009766-0.2016602-0.0273438-0.2861328-0.0839844   L22.8486328,50H21.4375c-0.1352539,0-0.2651367-0.0546875-0.3588867-0.1523438   c-2.9443359-3.0385742-3.9819336-6.3696289-5.0327148-10.4082031c-1.0419922-4.0053711,0.753418-9.8574219,1.3862305-10.7558594   c0.6850586-0.9741211,1.3623047-1.2861328,6.034668-2.7797852c3.9633789-1.1660156,5.1152344-3.7763672,5.4487305-5.1245117   c-0.878418,0.3081055-2.4238281,0.6621094-4.7988281,0.5834961c-3.6225586-0.109375-5.7626953,1.3217773-5.7836914,1.3364258   C18.1875,22.800293,18,22.815918,17.8398438,22.7436523c-0.1601563-0.0732422-0.2709961-0.2250977-0.2900391-0.4003906   c-0.0019531-0.0166016-0.2885742-2.0673828-3.2646484-5.3676758c-2.1064453-2.3359375-2.7998047-4.3710938-3.0244141-5.5507813   c-3.359375,3.4946289-1.5297852,7.7758789-0.0415039,11.2568359l0.2832031,0.6660156   c1.4467773,3.4404297,0.84375,4.7329102,0.578125,5.0878906c-0.3574219,0.7514648-4.3222656,9.1225586-5.1806641,12.3588867   c-0.8720703,3.2905273,0.7758789,9.6816406,0.7924805,9.7456055c0.012207,0.046875,0.0175781,0.0947266,0.015625,0.1430664   c-0.0693359,2.1088867,0.0610352,4.6186523,0.3666992,4.9956055c1.1328125,0.4863281,2.9970703,3.0322266,3.2055664,3.3203125   c0.0419922,0.0556641,4.7709961,6.3408203,9.1464844,10.4707031c4.3510742,4.1074219,15.5039063,9.5683594,15.6162109,9.6230469   c0.2480469,0.1210938,0.3510742,0.4199219,0.2299805,0.6679688c-0.1206055,0.2470703-0.4189453,0.3515625-0.668457,0.2304688   c-0.4633789-0.2255859-11.4018555-5.5820313-15.8642578-9.7949219c-4.4379883-4.1884766-9.2172852-10.5410156-9.2651367-10.6044922   c-0.7324219-1.0117188-2.1577148-2.7275391-2.8867188-3.0517578c-0.7036133-0.3515625-0.9936523-2.3056641-0.8818359-5.8183594   c-0.1943359-0.7626953-1.6713867-6.7944336-0.7734375-10.1831055c0.918457-3.4638672,5.0932617-12.2167969,5.2705078-12.5878906   c0.0234375-0.0488281,0.0546875-0.0932617,0.0922852-0.1323242c0,0.0004883-0.0004883,0.0004883-0.0004883,0.0004883   c-0.0043945,0,0.6113281-0.9296875-0.7148438-4.0834961l-0.2807617-0.6606445   c-1.5322266-3.5844727-3.8476563-9.0014648,1.0356445-13.0834961c0.1533203-0.1279297,0.3676758-0.1518555,0.5454102-0.0629883   c0.1777344,0.0893555,0.2856445,0.2758789,0.2744141,0.4750977c-0.0009766,0.0229492-0.0825195,2.6259766,2.8720703,5.9023438   c2.2099609,2.4501953,3.0371094,4.2802734,3.3427734,5.2211914c0.9379883-0.4770508,2.9296875-1.2592773,5.7788086-1.1630859   c3.6166992,0.1098633,5.1108398-0.8232422,5.1254883-0.8334961c0.1557617-0.1005859,0.3554688-0.1079102,0.5170898-0.019043   c0.1616211,0.0898438,0.2626953,0.2602539,0.2592773,0.4453125c-0.0009766,0.0507813-0.1655273,5.1015625-6.2905273,6.902832   c-4.565918,1.4599609-5.019043,1.7016602-5.5107422,2.3994141C17.6918945,30.0517578,16.0625,35.5322266,17.0136719,39.1875   c0.9951172,3.8256836,1.9731445,6.9873047,4.6376953,9.8125H23c0.0986328,0,0.1953125,0.0292969,0.2773438,0.0839844   l2.9628906,1.9755859c1.5415039-0.0380859,3.3237305-0.2314453,3.6240234-0.472168   c0.6083984-0.5205078,2.0966797,0.0400391,4.4213867,1.6586914c1.1040039,0.9326172,3.0766602,2.3964844,3.8291016,2.4755859   c1.2963867,0.1367188,11.5874023,2.3291016,15.597168,3.5820313c4.0136719,1.2548828,4.6328125,1.4160156,7.3876953,1.4462891   c0.9169922,0.0097656,2.1875,0.2548828,3.9462891,0.5947266c3.9833984,0.7685547,10.0283203,1.9199219,19.0117188,1.8427734   c7.6425781,0.0048828,8.5908203,2.5898438,8.6738281,2.8847656l1.2519531,4.7167969   c0.03125,0.1396484,2.5683594,12.0732422-7.3964844,15.6806641c-2.1923828,0.8486328-7.4335938-1.1503906-8.3574219-1.5146484   c-0.8320313-0.0273438-7.3271484-0.2548828-13.4550781-0.8886719l16.5986328,2.7324219   c0.1103516,0.0175781,0.2109375,0.0722656,0.2861328,0.1542969c0.0449219,0.0488281,0.4355469,0.4931641,0.2724609,1.0527344   c-0.1328125,0.4541016-0.5712891,0.7832031-1.3037109,0.9775391   C80.4101563,88.0410156,80.0498047,88.0673828,79.5810547,88.0673828z"/></g></svg>