<svg xmlns:dc="http://purl.org/dc/elements/1.1/" xmlns:cc="http://creativecommons.org/ns#" xmlns:rdf="http://www.w3.org/1999/02/22-rdf-syntax-ns#" xmlns:svg="http://www.w3.org/2000/svg" xmlns="http://www.w3.org/2000/svg" xmlns:sodipodi="http://sodipodi.sourceforge.net/DTD/sodipodi-0.dtd" xmlns:inkscape="http://www.inkscape.org/namespaces/inkscape" version="1.1" x="0px" y="0px" viewBox="0 0 100 100"><g transform="translate(0,-952.36218)"><path d="m 90.186002,978.36728 c 2.09403,1.4394 3.84564,3.23731 3.81357,5.39906 -0.016,1.08087 -0.60209,2.12885 -1.65672,2.8857 -0.76995,0.55255 -1.87295,0.98978 -3.15714,1.33425 l 1.25036,1.89277 c 0.38959,0.55561 -0.0118,1.4612 -0.6877,1.55145 -6.8564,0.83209 -12.49387,2.86927 -18.6615,5.74038 -0.073,0.23356 -0.16835,0.45217 -0.25008,0.68264 1.45131,0.95941 3.34474,2.16357 4.97015,3.53727 1.6595,1.4025 3.09389,3.0192 3.15714,4.9957 l 0.0312,0 c 0.004,0.041 -0.004,0.083 0,0.1241 0.97236,10.5981 -9.38068,20.8516 -20.88088,20.8516 -0.47409,-0.011 -0.90984,-0.4018 -0.96902,-0.8688 -0.29326,-2.0504 0.43873,-3.9294 1.5942,-5.5853 2.4985,-3.4189 5.91386,-5.6929 8.53365,-8.7502 1.12508,-1.328 1.78175,-2.5284 1.78175,-3.6614 -0.21922,-1.7563 -1.03842,-3.124 -1.75049,-4.5923 -2.32711,2.6666 -5.48144,4.721 -9.4089,5.7093 -7.43892,1.3844 -18.926969,-0.019 -27.038869,-1.5204 -2.14919,6.2261 -8.09377,13.125 -16.035771,17.1591 -0.34671,0.1744 -0.79592,0.1234 -1.09405,-0.1241 -2.54467,-2.0681 -4.2017398,-4.2272 -4.6263098,-6.6713 -0.42457,-2.4441 0.44129,-4.9869 2.5007098,-7.6021 0.0917,-0.117 0.21016,-0.2132 0.34384,-0.2793 l 8.814991,-4.5612 c -5.930041,-1.4122 -11.0824208,-3.0119 -14.2227608,-4.5923 -1.09887,-1.0481 -0.27592,-2.91126 0.37511,-3.84763 3.2643598,-3.90766 8.5496898,-6.35994 12.5972998,-8.19167 13.604041,-6.25036 26.8656,-10.61372 40.48015,-8.37785 3.80248,0.74326 7.11638,1.74363 9.84652,4.03378 3.28219,-1.17008 6.00026,-3.72413 8.90876,-5.64729 3.32766,-2.21731 8.44615,-2.70653 11.44078,-1.02396 z m -10.37788,2.69948 c -2.51129,1.67126 -5.20991,4.21651 -8.68995,5.61626 1.21324,2.42574 0.94921,5.66154 0.5314,8.0675 5.28432,-2.36966 10.39083,-4.1299 16.28584,-5.0267 l -1.21909,-1.79969 c -0.35944,-0.54528 0.0108,-1.40274 0.65643,-1.52042 1.87859,-0.34573 3.09895,-0.84384 3.78232,-1.33425 0.68337,-0.49042 0.83738,-0.88917 0.84399,-1.33425 0.0129,-0.87332 -1.0712,-2.41332 -2.84456,-3.66143 -3.26112,-1.6028 -6.78406,-0.65476 -9.34638,0.99298 z m -29.75838,1.36528 0.84399,3.56834 6.00169,3.41319 7.00197,-5.39905 c -1.30151,-0.43138 -2.72553,-0.76856 -4.2512,-1.02396 -3.41891,-0.53681 -6.34932,-0.65954 -9.59645,-0.55852 z m -2.00056,0.15519 c -5.00359,0.54603 -10.132489,2.15761 -14.597819,3.59937 l 3.03211,2.54438 8.314839,2.73056 4.72008,-3.97172 c -0.24298,-0.1269 -0.42875,-0.35741 -0.50014,-0.62058 z m 39.94875,0.093 c 0.55243,0 1.00028,0.44455 1.00028,0.99293 0,0.54837 -0.44785,0.99293 -1.00028,0.99293 -0.55244,0 -1.00028,-0.44456 -1.00028,-0.99293 0,-0.54838 0.44784,-0.99293 1.00028,-0.99293 z m -21.94368,2.20306 -8.06477,6.23684 0,4.09584 4.21993,5.11983 c 3.45177,-2.72527 5.79049,-6.51937 7.68967,-10.67394 -0.54996,-2.21241 -1.96961,-3.81787 -3.84483,-4.77853 z m -34.791049,2.01689 c -2.91605,0.99996 -5.84603,2.11811 -8.62743,3.28908 l 8.09603,4.12687 3.87609,-4.59231 z m 20.099409,1.64454 -5.37652,4.53024 0,11.44974 c 6.83519,0.4634 10.73437,-0.6777 14.59782,-3.0409 l -4.34493,-5.27485 c -0.15158,-0.17027 -0.24154,-0.39351 -0.25007,-0.62058 l 0,-4.43716 z m -15.035489,2.23409 -4.37623,5.21288 -1.03154,6.60921 c 4.43465,0.7506 8.89855,1.357 13.066179,1.7376 l 0,-11.0153 z m -16.09828,0.43441 c -3.648871,1.80222 -7.329681,3.53319 -10.2528908,5.95758 2.0464598,0.91222 4.6635898,1.79006 7.6584098,2.60644 l 5.845391,-6.91948 z m 5.06392,2.57541 -5.532801,6.54717 c 2.864131,0.7154 5.988561,1.3441 9.190081,1.9238 l 0.96903,-6.11276 z m 44.356249,0.68269 c -4.63163,10.37008 -14.75836,12.44368 -23.72543,12.00828 -12.696419,-0.9695 -29.19854,-3.9028 -37.3542798,-7.78828 -0.32857,0.36229 -0.35473,0.85658 -0.43757,1.24111 4.7234598,2.19657 14.2176208,4.71107 23.9129908,6.36097 10.081529,1.7155 20.419579,2.4961 25.382149,1.3963 7.71834,-1.9895 11.10484,-7.5955 12.22214,-13.21838 z m 0.40636,5.27494 c -0.39156,0.81574 -0.86857,1.60544 -1.37538,2.35824 0.82643,2.1446 2.34376,4.2472 2.37567,6.3919 0,1.8458 -0.98362,3.4691 -2.25064,4.9647 -2.66477,3.15 -6.12407,5.3482 -8.40862,8.564 -0.75936,1.0882 -1.10505,2.1552 -1.18783,3.2271 9.88503,-0.6482 18.70716,-9.7628 17.81752,-18.6485 -0.50851,-1.6355 -1.51321,-2.8176 -2.53192,-3.6924 -1.45043,-1.1841 -3.04732,-2.2475 -4.4388,-3.16504 z m -46.294289,6.95054 -10.659251,5.5231 c -1.74614,2.2729 -2.33287,4.1625 -2.03182,5.8956 0.28146,1.6202 1.47145,3.2744 3.43847,4.9956 7.019121,-3.7692 12.378001,-10.0155 14.347791,-15.3593 -1.7318,-0.3229 -3.42712,-0.6924 -5.09519,-1.055 z" style="text-indent:0;text-transform:none;direction:ltr;block-progression:tb;baseline-shift:baseline;color:#000000;enable-background:accumulate;" fill="#000000" fill-opacity="1" stroke="none" marker="none" visibility="visible" display="inline" overflow="visible"/></g></svg>