<svg xmlns="http://www.w3.org/2000/svg" xmlns:xlink="http://www.w3.org/1999/xlink" version="1.1" x="0px" y="0px" viewBox="0 0 300 300" style="enable-background:new 0 0 300 300;" xml:space="preserve"><path fill="#464646" d="M261,33.9c-18.5,0-33.5,15-33.5,33.5c0,9.3,3.8,17.8,10,23.9l-40.8,68.5c-3.1-0.9-6.4-1.5-9.8-1.5  c-10.3,0-19.4,4.6-25.6,11.9l-15.7-7.8c0.5-2.3,0.8-4.8,0.8-7.3c0-18.5-15-33.5-33.5-33.5s-33.5,15-33.5,33.5c0,6.6,1.9,12.8,5.3,18  l-29,30.3c-4.9-2.8-10.6-4.5-16.7-4.5c-18.5,0-33.5,15-33.5,33.5c0,18.5,15,33.5,33.5,33.5s33.5-15,33.5-33.5c0-6.6-1.9-12.8-5.3-18  l29-30.3c4.9,2.8,10.6,4.5,16.7,4.5c10.3,0,19.4-4.6,25.6-11.9l15.7,7.8c-0.5,2.3-0.8,4.8-0.8,7.3c0,18.5,15,33.5,33.5,33.5  c18.5,0,33.5-15,33.5-33.5c0-9.3-3.8-17.8-10-23.9l40.8-68.5c3.1,0.9,6.4,1.5,9.8,1.5c18.5,0,33.5-15,33.5-33.5S279.5,33.9,261,33.9  z M39,250.1c-9.7,0-17.5-7.9-17.5-17.5c0-9.7,7.9-17.5,17.5-17.5c9.7,0,17.5,7.9,17.5,17.5C56.5,242.2,48.6,250.1,39,250.1z   M113,172.7c-9.7,0-17.5-7.9-17.5-17.5c0-9.7,7.9-17.5,17.5-17.5s17.5,7.9,17.5,17.5C130.5,164.9,122.7,172.7,113,172.7z M187,209.4  c-9.7,0-17.5-7.9-17.5-17.5c0-9.7,7.9-17.5,17.5-17.5c9.7,0,17.5,7.9,17.5,17.5C204.5,201.6,196.7,209.4,187,209.4z M261,85  c-9.7,0-17.5-7.9-17.5-17.5s7.9-17.5,17.5-17.5c9.7,0,17.5,7.9,17.5,17.5S270.7,85,261,85z"/></svg>